<?xml version="1.0" encoding="UTF-8" standalone="no"?>
<!-- Created with Inkscape (http://www.inkscape.org/) -->

<svg
   xmlns:dc="http://purl.org/dc/elements/1.1/"
   xmlns:cc="http://creativecommons.org/ns#"
   xmlns:rdf="http://www.w3.org/1999/02/22-rdf-syntax-ns#"
   xmlns:svg="http://www.w3.org/2000/svg"
   xmlns="http://www.w3.org/2000/svg"
   xmlns:xlink="http://www.w3.org/1999/xlink"
   xmlns:sodipodi="http://sodipodi.sourceforge.net/DTD/sodipodi-0.dtd"
   xmlns:inkscape="http://www.inkscape.org/namespaces/inkscape"
   width="210mm"
   height="297mm"
   id="svg2"
   version="1.1"
   inkscape:version="0.48.4 r9939"
   sodipodi:docname="Nouveau document 1">
  <defs
     id="defs4">
    <linearGradient
       id="linearGradient3774-1-5">
      <stop
         id="stop3776-2-9"
         offset="0"
         style="stop-color:#ffccaa;stop-opacity:1;" />
      <stop
         id="stop3778-0-9"
         offset="1"
         style="stop-color:#ffccaa;stop-opacity:0;" />
    </linearGradient>
    <linearGradient
       inkscape:collect="always"
       xlink:href="#linearGradient3774-1-5-9"
       id="linearGradient5506-0"
       gradientUnits="userSpaceOnUse"
       x1="316"
       y1="661"
       x2="316"
       y2="717" />
    <linearGradient
       id="linearGradient3774-1-5-9">
      <stop
         id="stop3776-2-9-4"
         offset="0"
         style="stop-color:#ffccaa;stop-opacity:1;" />
      <stop
         id="stop3778-0-9-8"
         offset="1"
         style="stop-color:#ffccaa;stop-opacity:0;" />
    </linearGradient>
    <radialGradient
       inkscape:collect="always"
       xlink:href="#linearGradient6322-8"
       id="radialGradient3256"
       gradientUnits="userSpaceOnUse"
       gradientTransform="matrix(1,0,0,0.844,110,6.4)"
       cx="554"
       cy="342"
       fx="554"
       fy="342"
       r="22.5" />
    <linearGradient
       id="linearGradient6322-8">
      <stop
         style="stop-color:#ffd70d;stop-opacity:1;"
         offset="0"
         id="stop6324-8" />
      <stop
         style="stop-color:#ff0004;stop-opacity:1;"
         offset="1"
         id="stop6326-2" />
    </linearGradient>
    <radialGradient
       r="22.5"
       fy="342"
       fx="554"
       cy="342"
       cx="554"
       gradientTransform="matrix(0.747,0,0,0.63,-289,210)"
       gradientUnits="userSpaceOnUse"
       id="radialGradient4373"
       xlink:href="#linearGradient6322-8"
       inkscape:collect="always" />
    <linearGradient
       y2="63.7"
       y1="63.7"
       x2="134"
       x1="7.05"
       id="XMLID_7_"
       gradientUnits="userSpaceOnUse">
      <stop
         style="stop-color:#636363;stop-opacity:1;"
         offset="0"
         id="stop6" />
      <stop
         style="stop-color:#909090;stop-opacity:1;"
         offset="0.1981"
         id="stop8" />
      <stop
         style="stop-color:#393939;stop-opacity:1;"
         offset="0.5226"
         id="stop10" />
      <stop
         style="stop-color:#A1A0A0"
         offset="0.9311"
         id="stop12" />
      <stop
         style="stop-color:#9A9999"
         offset="1"
         id="stop14" />
    </linearGradient>
    <linearGradient
       y2="456"
       y1="456"
       x2="-234"
       x1="-236"
       id="XMLID_8_"
       gradientUnits="userSpaceOnUse"
       gradientTransform="matrix(-211,212,212,211,-146000,-46500)">
      <stop
         style="stop-color:#FFFFFF"
         offset="0"
         id="stop19" />
      <stop
         style="stop-color:#000000"
         offset="1"
         id="stop21" />
    </linearGradient>
    <linearGradient
       y2="456"
       y1="456"
       x2="-234"
       x1="-236"
       id="XMLID_10_"
       gradientUnits="userSpaceOnUse"
       gradientTransform="matrix(-211,212,212,211,-146000,-46500)">
      <stop
         style="stop-color:#C6C6C6"
         offset="0"
         id="stop40" />
      <stop
         style="stop-color:#000000"
         offset="1"
         id="stop42" />
    </linearGradient>
    <linearGradient
       y2="456"
       y1="456"
       x2="-234"
       x1="-236"
       id="XMLID_11_"
       gradientUnits="userSpaceOnUse"
       gradientTransform="matrix(-211,212,212,211,-146000,-46500)">
      <stop
         style="stop-color:#C6C6C6"
         offset="0"
         id="stop81" />
      <stop
         style="stop-color:#000000"
         offset="1"
         id="stop83" />
    </linearGradient>
    <linearGradient
       inkscape:collect="always"
       xlink:href="#linearGradient3774-1-5-9-5"
       id="linearGradient5506-0-4"
       gradientUnits="userSpaceOnUse"
       x1="316"
       y1="661"
       x2="316"
       y2="717" />
    <linearGradient
       id="linearGradient3774-1-5-9-5">
      <stop
         id="stop3776-2-9-4-5"
         offset="0"
         style="stop-color:#ffccaa;stop-opacity:1;" />
      <stop
         id="stop3778-0-9-8-1"
         offset="1"
         style="stop-color:#ffccaa;stop-opacity:0;" />
    </linearGradient>
    <linearGradient
       inkscape:collect="always"
       xlink:href="#linearGradient3774-1-5-9-5-2"
       id="linearGradient5506-0-4-5"
       gradientUnits="userSpaceOnUse"
       x1="316"
       y1="661"
       x2="316"
       y2="717" />
    <linearGradient
       id="linearGradient3774-1-5-9-5-2">
      <stop
         id="stop3776-2-9-4-5-7"
         offset="0"
         style="stop-color:#ffccaa;stop-opacity:1;" />
      <stop
         id="stop3778-0-9-8-1-6"
         offset="1"
         style="stop-color:#ffccaa;stop-opacity:0;" />
    </linearGradient>
  </defs>
  <sodipodi:namedview
     id="base"
     pagecolor="#ffffff"
     bordercolor="#666666"
     borderopacity="1.0"
     inkscape:pageopacity="0.0"
     inkscape:pageshadow="2"
     inkscape:zoom="1.98"
     inkscape:cx="187"
     inkscape:cy="655"
     inkscape:document-units="px"
     inkscape:current-layer="layer1"
     showgrid="false"
     inkscape:window-width="1533"
     inkscape:window-height="878"
     inkscape:window-x="59"
     inkscape:window-y="546"
     inkscape:window-maximized="1" />
  <metadata
     id="metadata7">
    <rdf:RDF>
      <cc:Work
         rdf:about="">
        <dc:format>image/svg+xml</dc:format>
        <dc:type
           rdf:resource="http://purl.org/dc/dcmitype/StillImage" />
        <dc:title></dc:title>
      </cc:Work>
    </rdf:RDF>
  </metadata>
  <g
     inkscape:label="Calque 1"
     inkscape:groupmode="layer"
     id="layer1">
    <rect
       style="fill:#ffffff;stroke:none;stroke-width:1;stroke-linejoin:round;stroke-miterlimit:4;stroke-opacity:0.85999999999999999;stroke-dasharray:none;stroke-dashoffset:0;fill-opacity:1"
       id="rect3909"
       width="144"
       height="144"
       x="95.2"
       y="318"
       inkscape:export-filename="C:\Users\Mikael\Dropbox\workspace\kingpongexperimental\res\drawable-hdpi\icon.png"
       inkscape:export-xdpi="80"
       inkscape:export-ydpi="80" />
    <g
       id="g4093">
      <path
         transform="matrix(0.191,0,0,0.191,100,300)"
         d="M 263,387 A 80,80 0 1 1 103,387 80,80 0 1 1 263,387 z"
         sodipodi:ry="80"
         sodipodi:rx="80"
         sodipodi:cy="387"
         sodipodi:cx="183"
         id="path2985"
         style="fill:#000000;fill-opacity:1;stroke:#000200;stroke-width:0;stroke-linejoin:round;stroke-miterlimit:4;stroke-opacity:1;stroke-dasharray:none;stroke-dashoffset:0"
         sodipodi:type="arc" />
      <path
         sodipodi:nodetypes="ccc"
         inkscape:connector-curvature="0"
         id="path3755"
         d="M 137,362 C 140,363 145,367 148,373 147,365 142,361 137,362 z"
         style="fill:#ffffff;fill-opacity:1;stroke:#000000;stroke-width:0.191px;stroke-linecap:butt;stroke-linejoin:miter;stroke-opacity:1" />
      <g
         transform="matrix(0.156,-0.11,0.11,0.156,62.9,334)"
         id="g4039">
        <path
           style="fill:#000000;fill-opacity:1;stroke:#000000;stroke-width:1px;stroke-linecap:butt;stroke-linejoin:miter;stroke-opacity:1"
           d="M 101,436 C 90.9,417 87,388 95.3,353 72.5,386 78.4,420 101,436 z"
           id="path3755-7"
           inkscape:connector-curvature="0"
           sodipodi:nodetypes="ccc" />
        <path
           style="fill:#000000;fill-opacity:1;stroke:#000000;stroke-width:0.479px;stroke-linecap:butt;stroke-linejoin:miter;stroke-opacity:1"
           d="M 74,418 C 69.1,409 67.2,395 71.2,378 60.3,394 63.1,411 74,418 z"
           id="path3755-7-4"
           inkscape:connector-curvature="0"
           sodipodi:nodetypes="ccc" />
      </g>
    </g>
    <rect
       style="fill:#000000;fill-opacity:1;stroke:none"
       id="rect4043"
       width="54.4"
       height="17.6"
       x="101"
       y="425" />
    <path
       style="fill:none;stroke:#00ffda;stroke-width:10;stroke-linecap:round;stroke-linejoin:miter;stroke-miterlimit:4;stroke-opacity:0.86;stroke-dasharray:none"
       d="M 187,414 126,434"
       id="path3759-1"
       inkscape:connector-curvature="0"
       sodipodi:nodetypes="cc" />
    <path
       style="fill:url(#radialGradient4373);fill-opacity:1;stroke:#000000;stroke-width:0.747;stroke-linecap:butt;stroke-linejoin:miter;stroke-miterlimit:4;stroke-opacity:1;stroke-dasharray:none"
       d="M 124,411 122,418 115,415 118,424 108,424 118,429 111,437 122,432 126,439 129,430 139,435 133,427 141,424 134,421 138,414 130,418 z"
       id="path6320-4"
       inkscape:connector-curvature="0"
       sodipodi:nodetypes="ccccccccccccccccc"
       inkscape:export-filename="C:\Users\mayer\Dropbox\workspace\KingPong\res\drawable-hdpi\bing.png"
       inkscape:export-xdpi="90"
       inkscape:export-ydpi="90" />
    <g
       style="fill-rule:evenodd"
       id="g3782-1-1"
       transform="matrix(0.111,0,0,0.111,162,398)">
      <path
         inkscape:connector-curvature="0"
         id="path2991-4-8"
         d="M 222,664 C 268,768 416,705 416,664 L 416,628 416,626 416,623 416,620 416,617 416,615 417,612 417,609 417,607 418,604 418,601 419,599 420,596 420,594 421,591 422,588 423,586 424,583 425,581 426,578 427,576 428,573 429,571 431,569 432,566 433,564 435,562 436,559 437,557 439,555 441,552 442,550 444,548 445,545 447,543 448,540 450,537 451,535 452,532 453,529 454,527 456,524 457,521 458,519 458,516 459,513 460,510 461,507 462,505 462,502 463,499 463,496 464,493 464,490 464,487 465,484 465,481 465,478 465,476 465,473 465,306 465,304 465,303 465,302 465,300 464,299 464,297 464,296 463,295 463,293 462,292 462,291 461,289 460,288 460,287 459,286 458,285 457,283 456,282 455,281 454,280 453,279 452,278 451,277 450,277 449,276 447,275 446,274 445,274 444,273 442,273 441,272 440,272 438,271 437,271 435,271 434,271 433,270 431,270 430,270 428,270 427,270 425,271 424,271 423,271 421,271 420,272 419,272 417,273 416,273 415,274 413,274 412,275 411,276 410,277 408,277 407,278 406,279 405,280 404,281 403,282 402,283 401,285 401,286 400,287 399,288 398,289 398,291 397,292 397,293 396,295 396,296 395,297 395,299 395,300 395,302 394,303 394,304 394,306 394,275 394,274 394,273 394,271 394,270 394,268 393,267 393,266 393,264 392,263 391,262 391,260 390,259 390,258 389,256 388,255 387,254 386,253 385,252 384,251 383,250 382,249 381,248 380,247 379,246 378,245 377,245 375,244 374,243 373,243 371,242 370,242 369,241 367,241 366,241 364,240 363,240 362,240 360,240 359,240 357,240 356,240 354,240 353,240 352,241 350,241 349,241 348,242 346,242 345,243 344,243 342,244 341,245 340,245 339,246 337,247 336,248 335,249 334,250 333,251 332,252 331,253 330,254 330,255 329,256 328,258 327,259 327,260 326,262 326,263 325,264 325,266 324,267 324,268 324,270 323,271 323,273 323,274 323,275 323,262 323,260 323,259 323,258 323,256 322,255 322,253 322,252 321,251 321,249 320,248 320,247 319,245 318,244 318,243 317,242 316,241 315,239 314,238 313,237 312,236 311,235 310,234 309,233 308,233 307,232 305,231 304,230 303,230 302,229 300,229 299,228 298,228 296,227 295,227 293,227 292,227 291,226 289,226 288,226 286,226 285,226 283,227 282,227 281,227 279,227 278,228 276,228 275,229 274,229 272,230 271,230 270,231 269,232 267,233 266,233 265,234 264,235 263,236 262,237 261,238 260,239 259,241 258,242 258,243 257,244 256,245 256,247 255,248 254,249 254,251 253,252 253,253 253,255 253,256 252,258 252,259 252,260 252,262 252,152 252,150 252,149 252,147 252,146 251,145 251,143 251,142 250,141 250,139 249,138 249,137 248,135 247,134 247,133 246,132 245,130 244,129 243,128 242,127 241,126 240,125 239,124 238,123 237,123 236,122 234,121 233,120 232,120 231,119 229,119 228,118 227,118 225,117 224,117 222,117 221,117 220,116 218,116 217,116 215,116 214,116 212,117 211,117 210,117 208,117 207,118 205,118 204,119 203,119 201,120 200,120 199,121 198,122 197,123 195,123 194,124 193,125 192,126 191,127 190,128 189,129 188,130 187,132 187,133 186,134 185,135 185,137 184,138 184,139 183,141 183,142 182,143 182,145 182,146 181,147 181,149 181,150 181,152 181,363 180,361 180,359 179,358 178,356 177,354 175,353 174,351 173,349 172,348 171,346 169,345 168,343 167,342 165,341 164,339 162,338 160,337 159,336 157,335 156,333 154,332 152,331 150,331 149,330 147,329 145,328 143,327 141,327 139,326 137,326 136,325 134,325 132,324 130,324 128,324 126,324 124,323 122,323 120,323 118,323 116,323 114,324 112,324 110,324 109,324 108,325 106,325 105,325 104,326 102,326 101,327 99.7,328 98.4,328 97.2,329 96,330 94.9,331 93.7,331 92.7,332 91.6,333 90.6,334 89.6,335 88.7,336 87.8,338 87,339 86.2,340 85.5,341 84.8,342 84.1,344 83.5,345 83,346 82.5,348 82.1,349 81.7,350 81.4,352 81.1,353 80.9,355 80.7,356 80.6,357 80.6,359 80.6,360 80.7,362 80.8,363 81,364 81.3,366 81.6,367 81.9,369 82.3,370 82.8,371 83.3,373 83.9,374 84.5,375 85.2,376 85.9,378 86.7,379 87.5,380 88.3,381 89.2,382 90.2,383 91.2,384 92.2,385 93.3,386 94.4,387 95.5,388 96.7,389 97.9,390 99.2,390 100,391 102,392 103,392 104,393 106,393 107,394 109,394 110,395 112,396 113,397 114,398 116,399 117,400 118,401 119,402 121,403 122,404 123,405 124,406 125,408 126,409 127,410 127,412 128,413 129,415 130,416 130,418 131,419 131,421 132,422 132,424 132,425 133,427 133,428 133,430 133,432 133,433 133,447 133,450 133,454 133,457 134,460 134,463 134,466 135,469 135,472 136,475 136,479 137,482 137,485 138,488 139,491 140,494 141,497 142,500 143,503 144,506 145,509 146,512 147,515 148,517 150,520 151,523 153,526 154,529 156,531 157,534 159,537 161,539 162,542 164,545 166,547 168,550 170,552 172,555 174,557 176,559 178,562 180,564 182,566 184,568 187,571 189,573 191,575 194,577 196,579 199,581 200,582 202,583 203,584 204,586 206,587 207,588 208,590 209,591 211,593 212,594 213,596 214,598 215,599 216,601 216,603 217,604 218,606 219,608 219,610 220,611 220,613 221,615 221,617 221,619 222,621 222,623 222,624 222,626 222,628 z"
         style="fill:url(#linearGradient5506-0);fill-opacity:1;stroke:none"
         sodipodi:nodetypes="cccccccccccccccccccccccccccccccccccccccccccccccccccccccccccccccccccccccccccccccccccccccccccccccccccccccccccccccccccccccccccccccccccccccccccccccccccccccccccccccccccccccccccccccccccccccccccccccccccccccccccccccccccccccccccccccccccccccccccccccccccccccccccccccccccccccccccccccccccccccccccccccccccccccccccccccccccccccccccccccccccccccccccccccccccccccccccccccccccccccccccccccccccccccccccccccccccccccccccccccccccccccccccccccccccccccccccccccccccccccccccccccccccccccccccccccccccccccccccccccccccccccccccccccccccccccccccccccccccccccccccccccccccccccccccccccccccccccccccccccccccccccccccccccccccccccccccccccccccccccccc" />
      <path
         inkscape:connector-curvature="0"
         id="path2993-6-2"
         d="M 439,555 441,552 442,550 444,548 445,545 447,543 448,540 450,537 451,535 452,532 453,529 454,527 456,524 457,521 458,519 458,516 459,513 460,510 461,507 462,505 462,502 463,499 463,496 464,493 464,490 464,487 465,484 465,481 465,478 465,476 465,473 M 181,152 181,406 M 252,152 252,373 M 465,306 465,473 M 394,275 394,373 M 323,262 323,373 M 133,447 133,433 M 222,628 222,664 M 416,628 416,664 M 252,152 252,150 252,149 252,147 252,146 251,145 251,143 251,142 250,141 250,139 249,138 249,137 248,135 247,134 247,133 246,132 245,130 244,129 243,128 242,127 241,126 240,125 239,124 238,123 237,123 236,122 234,121 233,120 232,120 231,119 229,119 228,118 227,118 225,117 224,117 222,117 221,117 220,116 218,116 217,116 215,116 214,116 212,117 211,117 210,117 208,117 207,118 205,118 204,119 203,119 201,120 200,120 199,121 198,122 197,123 195,123 194,124 193,125 192,126 191,127 190,128 189,129 188,130 187,132 187,133 186,134 185,135 185,137 184,138 184,139 183,141 183,142 182,143 182,145 182,146 181,147 181,149 181,150 181,152 M 199,581 196,579 194,577 191,575 189,573 187,571 184,568 182,566 180,564 178,562 176,559 174,557 172,555 170,552 168,550 166,547 164,545 162,542 161,539 159,537 157,534 156,531 154,529 153,526 151,523 150,520 148,517 147,515 146,512 145,509 144,506 143,503 142,500 141,497 140,494 139,491 138,488 137,485 137,482 136,479 136,475 135,472 135,469 134,466 134,463 134,460 133,457 133,454 133,450 133,447 M 112,324 110,324 109,324 108,325 106,325 105,325 104,326 102,326 101,327 99.7,328 98.4,328 97.2,329 96,330 94.9,331 93.7,331 92.7,332 91.6,333 90.6,334 89.6,335 88.7,336 87.8,338 87,339 86.2,340 85.5,341 84.8,342 84.1,344 83.5,345 83,346 82.5,348 82.1,349 81.7,350 81.4,352 81.1,353 80.9,355 80.7,356 80.6,357 80.6,359 80.6,360 80.7,362 80.8,363 81,364 81.3,366 81.6,367 81.9,369 82.3,370 82.8,371 83.3,373 83.9,374 84.5,375 85.2,376 85.9,378 86.7,379 87.5,380 88.3,381 89.2,382 90.2,383 91.2,384 92.2,385 93.3,386 94.4,387 95.5,388 96.7,389 97.9,390 99.2,390 100,391 102,392 103,392 104,393 M 323,262 323,260 323,259 323,258 323,256 322,255 322,253 322,252 321,251 321,249 320,248 320,247 319,245 318,244 318,243 317,242 316,241 315,239 314,238 313,237 312,236 311,235 310,234 309,233 308,233 307,232 305,231 304,230 303,230 302,229 300,229 299,228 298,228 296,227 295,227 293,227 292,227 291,226 289,226 288,226 286,226 285,226 283,227 282,227 281,227 279,227 278,228 276,228 275,229 274,229 272,230 271,230 270,231 269,232 267,233 266,233 265,234 264,235 263,236 262,237 261,238 260,239 259,241 258,242 258,243 257,244 256,245 256,247 255,248 254,249 254,251 253,252 253,253 253,255 253,256 252,258 252,259 252,260 252,262 M 323,275 323,274 323,273 323,271 324,270 324,268 324,267 325,266 325,264 326,263 326,262 327,260 327,259 328,258 329,256 330,255 330,254 331,253 332,252 333,251 334,250 335,249 336,248 337,247 339,246 340,245 341,245 342,244 344,243 345,243 346,242 348,242 349,241 350,241 352,241 353,240 354,240 356,240 357,240 359,240 360,240 362,240 363,240 364,240 366,241 367,241 369,241 370,242 371,242 373,243 374,243 375,244 377,245 378,245 379,246 380,247 381,248 382,249 383,250 384,251 385,252 386,253 387,254 388,255 389,256 390,258 390,259 391,260 391,262 392,263 393,264 393,266 393,267 394,268 394,270 394,271 394,273 394,274 394,275 M 133,433 133,432 133,430 133,428 133,427 132,425 132,424 132,422 131,421 131,419 130,418 130,416 129,415 128,413 127,412 127,410 126,409 125,408 124,406 123,405 122,404 121,403 119,402 118,401 117,400 116,399 114,398 113,397 112,396 110,395 109,394 107,394 106,393 104,393 M 112,324 114,324 116,323 118,323 120,323 122,323 124,323 126,324 128,324 130,324 132,324 134,325 136,325 137,326 139,326 141,327 143,327 145,328 147,329 149,330 150,331 152,331 154,332 156,333 157,335 159,336 160,337 162,338 164,339 165,341 167,342 168,343 169,345 171,346 172,348 173,349 174,351 175,353 177,354 178,356 179,358 180,359 180,361 181,363 M 222,628 222,626 222,624 222,623 222,621 221,619 221,617 221,615 220,613 220,611 219,610 219,608 218,606 217,604 216,603 216,601 215,599 214,598 213,596 212,594 211,593 209,591 208,590 207,588 206,587 204,586 203,584 202,583 200,582 199,581 M 416,628 416,626 416,623 416,620 416,617 416,615 417,612 417,609 417,607 418,604 418,601 419,599 420,596 420,594 421,591 422,588 423,586 424,583 425,581 426,578 427,576 428,573 429,571 431,569 432,566 433,564 435,562 436,559 437,557 439,555 M 181,406 181,409 181,411 181,414 181,416 180,418 180,421 180,423 179,426 179,428 178,430 178,433 177,435 176,437 176,440 175,442 174,444 M 174,444 173,446 172,449 171,451 171,453 170,456 169,458 169,461 168,463 168,465 167,468 167,470 167,473 167,475 M 394,306 394,304 394,303 395,302 395,300 395,299 395,297 396,296 396,295 397,293 397,292 398,291 398,289 399,288 400,287 401,286 401,285 402,283 403,282 404,281 405,280 406,279 407,278 408,277 410,277 411,276 412,275 413,274 415,274 416,273 417,273 419,272 420,272 421,271 423,271 424,271 425,271 427,270 428,270 430,270 431,270 433,270 434,271 435,271 437,271 438,271 440,272 441,272 442,273 444,273 445,274 446,274 447,275 449,276 450,277 451,277 452,278 453,279 454,280 455,281 456,282 457,283 458,285 459,286 460,287 460,288 461,289 462,291 462,292 463,293 463,295 464,296 464,297 464,299 465,300 465,302 465,303 465,304 465,306"
         style="fill:none;stroke:#000000;stroke-width:26.859;stroke-linecap:round;stroke-linejoin:round;stroke-miterlimit:4;stroke-dasharray:none" />
    </g>
    <g
       style="overflow:visible"
       id="g5325"
       transform="matrix(0.281,0,0,0.281,345,217)" />
    <rect
       style="fill:#000000;fill-opacity:1;stroke:none"
       id="rect4043-2"
       width="54.4"
       height="17.6"
       x="117"
       y="329" />
    <g
       style="fill-rule:evenodd"
       id="g3782-1-1-7"
       transform="matrix(-0.011,0.11,-0.11,-0.011,152,352)">
      <path
         inkscape:connector-curvature="0"
         id="path2991-4-8-1"
         d="M 222,664 C 268,768 416,705 416,664 L 416,628 416,626 416,623 416,620 416,617 416,615 417,612 417,609 417,607 418,604 418,601 419,599 420,596 420,594 421,591 422,588 423,586 424,583 425,581 426,578 427,576 428,573 429,571 431,569 432,566 433,564 435,562 436,559 437,557 439,555 441,552 442,550 444,548 445,545 447,543 448,540 450,537 451,535 452,532 453,529 454,527 456,524 457,521 458,519 458,516 459,513 460,510 461,507 462,505 462,502 463,499 463,496 464,493 464,490 464,487 465,484 465,481 465,478 465,476 465,473 465,306 465,304 465,303 465,302 465,300 464,299 464,297 464,296 463,295 463,293 462,292 462,291 461,289 460,288 460,287 459,286 458,285 457,283 456,282 455,281 454,280 453,279 452,278 451,277 450,277 449,276 447,275 446,274 445,274 444,273 442,273 441,272 440,272 438,271 437,271 435,271 434,271 433,270 431,270 430,270 428,270 427,270 425,271 424,271 423,271 421,271 420,272 419,272 417,273 416,273 415,274 413,274 412,275 411,276 410,277 408,277 407,278 406,279 405,280 404,281 403,282 402,283 401,285 401,286 400,287 399,288 398,289 398,291 397,292 397,293 396,295 396,296 395,297 395,299 395,300 395,302 394,303 394,304 394,306 394,275 394,274 394,273 394,271 394,270 394,268 393,267 393,266 393,264 392,263 391,262 391,260 390,259 390,258 389,256 388,255 387,254 386,253 385,252 384,251 383,250 382,249 381,248 380,247 379,246 378,245 377,245 375,244 374,243 373,243 371,242 370,242 369,241 367,241 366,241 364,240 363,240 362,240 360,240 359,240 357,240 356,240 354,240 353,240 352,241 350,241 349,241 348,242 346,242 345,243 344,243 342,244 341,245 340,245 339,246 337,247 336,248 335,249 334,250 333,251 332,252 331,253 330,254 330,255 329,256 328,258 327,259 327,260 326,262 326,263 325,264 325,266 324,267 324,268 324,270 323,271 323,273 323,274 323,275 323,262 323,260 323,259 323,258 323,256 322,255 322,253 322,252 321,251 321,249 320,248 320,247 319,245 318,244 318,243 317,242 316,241 315,239 314,238 313,237 312,236 311,235 310,234 309,233 308,233 307,232 305,231 304,230 303,230 302,229 300,229 299,228 298,228 296,227 295,227 293,227 292,227 291,226 289,226 288,226 286,226 285,226 283,227 282,227 281,227 279,227 278,228 276,228 275,229 274,229 272,230 271,230 270,231 269,232 267,233 266,233 265,234 264,235 263,236 262,237 261,238 260,239 259,241 258,242 258,243 257,244 256,245 256,247 255,248 254,249 254,251 253,252 253,253 253,255 253,256 252,258 252,259 252,260 252,262 252,152 252,150 252,149 252,147 252,146 251,145 251,143 251,142 250,141 250,139 249,138 249,137 248,135 247,134 247,133 246,132 245,130 244,129 243,128 242,127 241,126 240,125 239,124 238,123 237,123 236,122 234,121 233,120 232,120 231,119 229,119 228,118 227,118 225,117 224,117 222,117 221,117 220,116 218,116 217,116 215,116 214,116 212,117 211,117 210,117 208,117 207,118 205,118 204,119 203,119 201,120 200,120 199,121 198,122 197,123 195,123 194,124 193,125 192,126 191,127 190,128 189,129 188,130 187,132 187,133 186,134 185,135 185,137 184,138 184,139 183,141 183,142 182,143 182,145 182,146 181,147 181,149 181,150 181,152 181,363 180,361 180,359 179,358 178,356 177,354 175,353 174,351 173,349 172,348 171,346 169,345 168,343 167,342 165,341 164,339 162,338 160,337 159,336 157,335 156,333 154,332 152,331 150,331 149,330 147,329 145,328 143,327 141,327 139,326 137,326 136,325 134,325 132,324 130,324 128,324 126,324 124,323 122,323 120,323 118,323 116,323 114,324 112,324 110,324 109,324 108,325 106,325 105,325 104,326 102,326 101,327 99.7,328 98.4,328 97.2,329 96,330 94.9,331 93.7,331 92.7,332 91.6,333 90.6,334 89.6,335 88.7,336 87.8,338 87,339 86.2,340 85.5,341 84.8,342 84.1,344 83.5,345 83,346 82.5,348 82.1,349 81.7,350 81.4,352 81.1,353 80.9,355 80.7,356 80.6,357 80.6,359 80.6,360 80.7,362 80.8,363 81,364 81.3,366 81.6,367 81.9,369 82.3,370 82.8,371 83.3,373 83.9,374 84.5,375 85.2,376 85.9,378 86.7,379 87.5,380 88.3,381 89.2,382 90.2,383 91.2,384 92.2,385 93.3,386 94.4,387 95.5,388 96.7,389 97.9,390 99.2,390 100,391 102,392 103,392 104,393 106,393 107,394 109,394 110,395 112,396 113,397 114,398 116,399 117,400 118,401 119,402 121,403 122,404 123,405 124,406 125,408 126,409 127,410 127,412 128,413 129,415 130,416 130,418 131,419 131,421 132,422 132,424 132,425 133,427 133,428 133,430 133,432 133,433 133,447 133,450 133,454 133,457 134,460 134,463 134,466 135,469 135,472 136,475 136,479 137,482 137,485 138,488 139,491 140,494 141,497 142,500 143,503 144,506 145,509 146,512 147,515 148,517 150,520 151,523 153,526 154,529 156,531 157,534 159,537 161,539 162,542 164,545 166,547 168,550 170,552 172,555 174,557 176,559 178,562 180,564 182,566 184,568 187,571 189,573 191,575 194,577 196,579 199,581 200,582 202,583 203,584 204,586 206,587 207,588 208,590 209,591 211,593 212,594 213,596 214,598 215,599 216,601 216,603 217,604 218,606 219,608 219,610 220,611 220,613 221,615 221,617 221,619 222,621 222,623 222,624 222,626 222,628 z"
         style="fill:url(#linearGradient5506-0-4);fill-opacity:1;stroke:none"
         sodipodi:nodetypes="cccccccccccccccccccccccccccccccccccccccccccccccccccccccccccccccccccccccccccccccccccccccccccccccccccccccccccccccccccccccccccccccccccccccccccccccccccccccccccccccccccccccccccccccccccccccccccccccccccccccccccccccccccccccccccccccccccccccccccccccccccccccccccccccccccccccccccccccccccccccccccccccccccccccccccccccccccccccccccccccccccccccccccccccccccccccccccccccccccccccccccccccccccccccccccccccccccccccccccccccccccccccccccccccccccccccccccccccccccccccccccccccccccccccccccccccccccccccccccccccccccccccccccccccccccccccccccccccccccccccccccccccccccccccccccccccccccccccccccccccccccccccccccccccccccccccccccccccccccccccccc" />
      <path
         inkscape:connector-curvature="0"
         id="path2993-6-2-1"
         d="M 439,555 441,552 442,550 444,548 445,545 447,543 448,540 450,537 451,535 452,532 453,529 454,527 456,524 457,521 458,519 458,516 459,513 460,510 461,507 462,505 462,502 463,499 463,496 464,493 464,490 464,487 465,484 465,481 465,478 465,476 465,473 M 181,152 181,406 M 252,152 252,373 M 465,306 465,473 M 394,275 394,373 M 323,262 323,373 M 133,447 133,433 M 222,628 222,664 M 416,628 416,664 M 252,152 252,150 252,149 252,147 252,146 251,145 251,143 251,142 250,141 250,139 249,138 249,137 248,135 247,134 247,133 246,132 245,130 244,129 243,128 242,127 241,126 240,125 239,124 238,123 237,123 236,122 234,121 233,120 232,120 231,119 229,119 228,118 227,118 225,117 224,117 222,117 221,117 220,116 218,116 217,116 215,116 214,116 212,117 211,117 210,117 208,117 207,118 205,118 204,119 203,119 201,120 200,120 199,121 198,122 197,123 195,123 194,124 193,125 192,126 191,127 190,128 189,129 188,130 187,132 187,133 186,134 185,135 185,137 184,138 184,139 183,141 183,142 182,143 182,145 182,146 181,147 181,149 181,150 181,152 M 199,581 196,579 194,577 191,575 189,573 187,571 184,568 182,566 180,564 178,562 176,559 174,557 172,555 170,552 168,550 166,547 164,545 162,542 161,539 159,537 157,534 156,531 154,529 153,526 151,523 150,520 148,517 147,515 146,512 145,509 144,506 143,503 142,500 141,497 140,494 139,491 138,488 137,485 137,482 136,479 136,475 135,472 135,469 134,466 134,463 134,460 133,457 133,454 133,450 133,447 M 112,324 110,324 109,324 108,325 106,325 105,325 104,326 102,326 101,327 99.7,328 98.4,328 97.2,329 96,330 94.9,331 93.7,331 92.7,332 91.6,333 90.6,334 89.6,335 88.7,336 87.8,338 87,339 86.2,340 85.5,341 84.8,342 84.1,344 83.5,345 83,346 82.5,348 82.1,349 81.7,350 81.4,352 81.1,353 80.9,355 80.7,356 80.6,357 80.6,359 80.6,360 80.7,362 80.8,363 81,364 81.3,366 81.6,367 81.9,369 82.3,370 82.8,371 83.3,373 83.9,374 84.5,375 85.2,376 85.9,378 86.7,379 87.5,380 88.3,381 89.2,382 90.2,383 91.2,384 92.2,385 93.3,386 94.4,387 95.5,388 96.7,389 97.9,390 99.2,390 100,391 102,392 103,392 104,393 M 323,262 323,260 323,259 323,258 323,256 322,255 322,253 322,252 321,251 321,249 320,248 320,247 319,245 318,244 318,243 317,242 316,241 315,239 314,238 313,237 312,236 311,235 310,234 309,233 308,233 307,232 305,231 304,230 303,230 302,229 300,229 299,228 298,228 296,227 295,227 293,227 292,227 291,226 289,226 288,226 286,226 285,226 283,227 282,227 281,227 279,227 278,228 276,228 275,229 274,229 272,230 271,230 270,231 269,232 267,233 266,233 265,234 264,235 263,236 262,237 261,238 260,239 259,241 258,242 258,243 257,244 256,245 256,247 255,248 254,249 254,251 253,252 253,253 253,255 253,256 252,258 252,259 252,260 252,262 M 323,275 323,274 323,273 323,271 324,270 324,268 324,267 325,266 325,264 326,263 326,262 327,260 327,259 328,258 329,256 330,255 330,254 331,253 332,252 333,251 334,250 335,249 336,248 337,247 339,246 340,245 341,245 342,244 344,243 345,243 346,242 348,242 349,241 350,241 352,241 353,240 354,240 356,240 357,240 359,240 360,240 362,240 363,240 364,240 366,241 367,241 369,241 370,242 371,242 373,243 374,243 375,244 377,245 378,245 379,246 380,247 381,248 382,249 383,250 384,251 385,252 386,253 387,254 388,255 389,256 390,258 390,259 391,260 391,262 392,263 393,264 393,266 393,267 394,268 394,270 394,271 394,273 394,274 394,275 M 133,433 133,432 133,430 133,428 133,427 132,425 132,424 132,422 131,421 131,419 130,418 130,416 129,415 128,413 127,412 127,410 126,409 125,408 124,406 123,405 122,404 121,403 119,402 118,401 117,400 116,399 114,398 113,397 112,396 110,395 109,394 107,394 106,393 104,393 M 112,324 114,324 116,323 118,323 120,323 122,323 124,323 126,324 128,324 130,324 132,324 134,325 136,325 137,326 139,326 141,327 143,327 145,328 147,329 149,330 150,331 152,331 154,332 156,333 157,335 159,336 160,337 162,338 164,339 165,341 167,342 168,343 169,345 171,346 172,348 173,349 174,351 175,353 177,354 178,356 179,358 180,359 180,361 181,363 M 222,628 222,626 222,624 222,623 222,621 221,619 221,617 221,615 220,613 220,611 219,610 219,608 218,606 217,604 216,603 216,601 215,599 214,598 213,596 212,594 211,593 209,591 208,590 207,588 206,587 204,586 203,584 202,583 200,582 199,581 M 416,628 416,626 416,623 416,620 416,617 416,615 417,612 417,609 417,607 418,604 418,601 419,599 420,596 420,594 421,591 422,588 423,586 424,583 425,581 426,578 427,576 428,573 429,571 431,569 432,566 433,564 435,562 436,559 437,557 439,555 M 181,406 181,409 181,411 181,414 181,416 180,418 180,421 180,423 179,426 179,428 178,430 178,433 177,435 176,437 176,440 175,442 174,444 M 174,444 173,446 172,449 171,451 171,453 170,456 169,458 169,461 168,463 168,465 167,468 167,470 167,473 167,475 M 394,306 394,304 394,303 395,302 395,300 395,299 395,297 396,296 396,295 397,293 397,292 398,291 398,289 399,288 400,287 401,286 401,285 402,283 403,282 404,281 405,280 406,279 407,278 408,277 410,277 411,276 412,275 413,274 415,274 416,273 417,273 419,272 420,272 421,271 423,271 424,271 425,271 427,270 428,270 430,270 431,270 433,270 434,271 435,271 437,271 438,271 440,272 441,272 442,273 444,273 445,274 446,274 447,275 449,276 450,277 451,277 452,278 453,279 454,280 455,281 456,282 457,283 458,285 459,286 460,287 460,288 461,289 462,291 462,292 463,293 463,295 464,296 464,297 464,299 465,300 465,302 465,303 465,304 465,306"
         style="fill:none;stroke:#000000;stroke-width:26.859;stroke-linecap:round;stroke-linejoin:round;stroke-miterlimit:4;stroke-dasharray:none" />
    </g>
    <rect
       style="fill:#000000;fill-opacity:1;stroke:none"
       id="rect4043-2-1"
       width="54.4"
       height="17.6"
       x="354"
       y="-190"
       transform="matrix(0,1,-1,0,0,0)"
       inkscape:transform-center-x="40.1"
       inkscape:transform-center-y="-22.8" />
    <g
       style="fill-rule:evenodd"
       id="g3782-1-1-7-4"
       transform="matrix(0,-0.111,0.111,0,164,416)"
       inkscape:transform-center-x="11.6"
       inkscape:transform-center-y="-18.3">
      <path
         inkscape:connector-curvature="0"
         id="path2991-4-8-1-2"
         d="M 222,664 C 268,768 416,705 416,664 L 416,628 416,626 416,623 416,620 416,617 416,615 417,612 417,609 417,607 418,604 418,601 419,599 420,596 420,594 421,591 422,588 423,586 424,583 425,581 426,578 427,576 428,573 429,571 431,569 432,566 433,564 435,562 436,559 437,557 439,555 441,552 442,550 444,548 445,545 447,543 448,540 450,537 451,535 452,532 453,529 454,527 456,524 457,521 458,519 458,516 459,513 460,510 461,507 462,505 462,502 463,499 463,496 464,493 464,490 464,487 465,484 465,481 465,478 465,476 465,473 465,306 465,304 465,303 465,302 465,300 464,299 464,297 464,296 463,295 463,293 462,292 462,291 461,289 460,288 460,287 459,286 458,285 457,283 456,282 455,281 454,280 453,279 452,278 451,277 450,277 449,276 447,275 446,274 445,274 444,273 442,273 441,272 440,272 438,271 437,271 435,271 434,271 433,270 431,270 430,270 428,270 427,270 425,271 424,271 423,271 421,271 420,272 419,272 417,273 416,273 415,274 413,274 412,275 411,276 410,277 408,277 407,278 406,279 405,280 404,281 403,282 402,283 401,285 401,286 400,287 399,288 398,289 398,291 397,292 397,293 396,295 396,296 395,297 395,299 395,300 395,302 394,303 394,304 394,306 394,275 394,274 394,273 394,271 394,270 394,268 393,267 393,266 393,264 392,263 391,262 391,260 390,259 390,258 389,256 388,255 387,254 386,253 385,252 384,251 383,250 382,249 381,248 380,247 379,246 378,245 377,245 375,244 374,243 373,243 371,242 370,242 369,241 367,241 366,241 364,240 363,240 362,240 360,240 359,240 357,240 356,240 354,240 353,240 352,241 350,241 349,241 348,242 346,242 345,243 344,243 342,244 341,245 340,245 339,246 337,247 336,248 335,249 334,250 333,251 332,252 331,253 330,254 330,255 329,256 328,258 327,259 327,260 326,262 326,263 325,264 325,266 324,267 324,268 324,270 323,271 323,273 323,274 323,275 323,262 323,260 323,259 323,258 323,256 322,255 322,253 322,252 321,251 321,249 320,248 320,247 319,245 318,244 318,243 317,242 316,241 315,239 314,238 313,237 312,236 311,235 310,234 309,233 308,233 307,232 305,231 304,230 303,230 302,229 300,229 299,228 298,228 296,227 295,227 293,227 292,227 291,226 289,226 288,226 286,226 285,226 283,227 282,227 281,227 279,227 278,228 276,228 275,229 274,229 272,230 271,230 270,231 269,232 267,233 266,233 265,234 264,235 263,236 262,237 261,238 260,239 259,241 258,242 258,243 257,244 256,245 256,247 255,248 254,249 254,251 253,252 253,253 253,255 253,256 252,258 252,259 252,260 252,262 252,152 252,150 252,149 252,147 252,146 251,145 251,143 251,142 250,141 250,139 249,138 249,137 248,135 247,134 247,133 246,132 245,130 244,129 243,128 242,127 241,126 240,125 239,124 238,123 237,123 236,122 234,121 233,120 232,120 231,119 229,119 228,118 227,118 225,117 224,117 222,117 221,117 220,116 218,116 217,116 215,116 214,116 212,117 211,117 210,117 208,117 207,118 205,118 204,119 203,119 201,120 200,120 199,121 198,122 197,123 195,123 194,124 193,125 192,126 191,127 190,128 189,129 188,130 187,132 187,133 186,134 185,135 185,137 184,138 184,139 183,141 183,142 182,143 182,145 182,146 181,147 181,149 181,150 181,152 181,363 180,361 180,359 179,358 178,356 177,354 175,353 174,351 173,349 172,348 171,346 169,345 168,343 167,342 165,341 164,339 162,338 160,337 159,336 157,335 156,333 154,332 152,331 150,331 149,330 147,329 145,328 143,327 141,327 139,326 137,326 136,325 134,325 132,324 130,324 128,324 126,324 124,323 122,323 120,323 118,323 116,323 114,324 112,324 110,324 109,324 108,325 106,325 105,325 104,326 102,326 101,327 99.7,328 98.4,328 97.2,329 96,330 94.9,331 93.7,331 92.7,332 91.6,333 90.6,334 89.6,335 88.7,336 87.8,338 87,339 86.2,340 85.5,341 84.8,342 84.1,344 83.5,345 83,346 82.5,348 82.1,349 81.7,350 81.4,352 81.1,353 80.9,355 80.7,356 80.6,357 80.6,359 80.6,360 80.7,362 80.8,363 81,364 81.3,366 81.6,367 81.9,369 82.3,370 82.8,371 83.3,373 83.9,374 84.5,375 85.2,376 85.9,378 86.7,379 87.5,380 88.3,381 89.2,382 90.2,383 91.2,384 92.2,385 93.3,386 94.4,387 95.5,388 96.7,389 97.9,390 99.2,390 100,391 102,392 103,392 104,393 106,393 107,394 109,394 110,395 112,396 113,397 114,398 116,399 117,400 118,401 119,402 121,403 122,404 123,405 124,406 125,408 126,409 127,410 127,412 128,413 129,415 130,416 130,418 131,419 131,421 132,422 132,424 132,425 133,427 133,428 133,430 133,432 133,433 133,447 133,450 133,454 133,457 134,460 134,463 134,466 135,469 135,472 136,475 136,479 137,482 137,485 138,488 139,491 140,494 141,497 142,500 143,503 144,506 145,509 146,512 147,515 148,517 150,520 151,523 153,526 154,529 156,531 157,534 159,537 161,539 162,542 164,545 166,547 168,550 170,552 172,555 174,557 176,559 178,562 180,564 182,566 184,568 187,571 189,573 191,575 194,577 196,579 199,581 200,582 202,583 203,584 204,586 206,587 207,588 208,590 209,591 211,593 212,594 213,596 214,598 215,599 216,601 216,603 217,604 218,606 219,608 219,610 220,611 220,613 221,615 221,617 221,619 222,621 222,623 222,624 222,626 222,628 z"
         style="fill:url(#linearGradient5506-0-4-5);fill-opacity:1;stroke:none"
         sodipodi:nodetypes="cccccccccccccccccccccccccccccccccccccccccccccccccccccccccccccccccccccccccccccccccccccccccccccccccccccccccccccccccccccccccccccccccccccccccccccccccccccccccccccccccccccccccccccccccccccccccccccccccccccccccccccccccccccccccccccccccccccccccccccccccccccccccccccccccccccccccccccccccccccccccccccccccccccccccccccccccccccccccccccccccccccccccccccccccccccccccccccccccccccccccccccccccccccccccccccccccccccccccccccccccccccccccccccccccccccccccccccccccccccccccccccccccccccccccccccccccccccccccccccccccccccccccccccccccccccccccccccccccccccccccccccccccccccccccccccccccccccccccccccccccccccccccccccccccccccccccccccccccccccccccc" />
      <path
         inkscape:connector-curvature="0"
         id="path2993-6-2-1-3"
         d="M 439,555 441,552 442,550 444,548 445,545 447,543 448,540 450,537 451,535 452,532 453,529 454,527 456,524 457,521 458,519 458,516 459,513 460,510 461,507 462,505 462,502 463,499 463,496 464,493 464,490 464,487 465,484 465,481 465,478 465,476 465,473 M 181,152 181,406 M 252,152 252,373 M 465,306 465,473 M 394,275 394,373 M 323,262 323,373 M 133,447 133,433 M 222,628 222,664 M 416,628 416,664 M 252,152 252,150 252,149 252,147 252,146 251,145 251,143 251,142 250,141 250,139 249,138 249,137 248,135 247,134 247,133 246,132 245,130 244,129 243,128 242,127 241,126 240,125 239,124 238,123 237,123 236,122 234,121 233,120 232,120 231,119 229,119 228,118 227,118 225,117 224,117 222,117 221,117 220,116 218,116 217,116 215,116 214,116 212,117 211,117 210,117 208,117 207,118 205,118 204,119 203,119 201,120 200,120 199,121 198,122 197,123 195,123 194,124 193,125 192,126 191,127 190,128 189,129 188,130 187,132 187,133 186,134 185,135 185,137 184,138 184,139 183,141 183,142 182,143 182,145 182,146 181,147 181,149 181,150 181,152 M 199,581 196,579 194,577 191,575 189,573 187,571 184,568 182,566 180,564 178,562 176,559 174,557 172,555 170,552 168,550 166,547 164,545 162,542 161,539 159,537 157,534 156,531 154,529 153,526 151,523 150,520 148,517 147,515 146,512 145,509 144,506 143,503 142,500 141,497 140,494 139,491 138,488 137,485 137,482 136,479 136,475 135,472 135,469 134,466 134,463 134,460 133,457 133,454 133,450 133,447 M 112,324 110,324 109,324 108,325 106,325 105,325 104,326 102,326 101,327 99.7,328 98.4,328 97.2,329 96,330 94.9,331 93.7,331 92.7,332 91.6,333 90.6,334 89.6,335 88.7,336 87.8,338 87,339 86.2,340 85.5,341 84.8,342 84.1,344 83.5,345 83,346 82.5,348 82.1,349 81.7,350 81.4,352 81.1,353 80.9,355 80.7,356 80.6,357 80.6,359 80.6,360 80.7,362 80.8,363 81,364 81.3,366 81.6,367 81.9,369 82.3,370 82.8,371 83.3,373 83.9,374 84.5,375 85.2,376 85.9,378 86.7,379 87.5,380 88.3,381 89.2,382 90.2,383 91.2,384 92.2,385 93.3,386 94.4,387 95.5,388 96.7,389 97.9,390 99.2,390 100,391 102,392 103,392 104,393 M 323,262 323,260 323,259 323,258 323,256 322,255 322,253 322,252 321,251 321,249 320,248 320,247 319,245 318,244 318,243 317,242 316,241 315,239 314,238 313,237 312,236 311,235 310,234 309,233 308,233 307,232 305,231 304,230 303,230 302,229 300,229 299,228 298,228 296,227 295,227 293,227 292,227 291,226 289,226 288,226 286,226 285,226 283,227 282,227 281,227 279,227 278,228 276,228 275,229 274,229 272,230 271,230 270,231 269,232 267,233 266,233 265,234 264,235 263,236 262,237 261,238 260,239 259,241 258,242 258,243 257,244 256,245 256,247 255,248 254,249 254,251 253,252 253,253 253,255 253,256 252,258 252,259 252,260 252,262 M 323,275 323,274 323,273 323,271 324,270 324,268 324,267 325,266 325,264 326,263 326,262 327,260 327,259 328,258 329,256 330,255 330,254 331,253 332,252 333,251 334,250 335,249 336,248 337,247 339,246 340,245 341,245 342,244 344,243 345,243 346,242 348,242 349,241 350,241 352,241 353,240 354,240 356,240 357,240 359,240 360,240 362,240 363,240 364,240 366,241 367,241 369,241 370,242 371,242 373,243 374,243 375,244 377,245 378,245 379,246 380,247 381,248 382,249 383,250 384,251 385,252 386,253 387,254 388,255 389,256 390,258 390,259 391,260 391,262 392,263 393,264 393,266 393,267 394,268 394,270 394,271 394,273 394,274 394,275 M 133,433 133,432 133,430 133,428 133,427 132,425 132,424 132,422 131,421 131,419 130,418 130,416 129,415 128,413 127,412 127,410 126,409 125,408 124,406 123,405 122,404 121,403 119,402 118,401 117,400 116,399 114,398 113,397 112,396 110,395 109,394 107,394 106,393 104,393 M 112,324 114,324 116,323 118,323 120,323 122,323 124,323 126,324 128,324 130,324 132,324 134,325 136,325 137,326 139,326 141,327 143,327 145,328 147,329 149,330 150,331 152,331 154,332 156,333 157,335 159,336 160,337 162,338 164,339 165,341 167,342 168,343 169,345 171,346 172,348 173,349 174,351 175,353 177,354 178,356 179,358 180,359 180,361 181,363 M 222,628 222,626 222,624 222,623 222,621 221,619 221,617 221,615 220,613 220,611 219,610 219,608 218,606 217,604 216,603 216,601 215,599 214,598 213,596 212,594 211,593 209,591 208,590 207,588 206,587 204,586 203,584 202,583 200,582 199,581 M 416,628 416,626 416,623 416,620 416,617 416,615 417,612 417,609 417,607 418,604 418,601 419,599 420,596 420,594 421,591 422,588 423,586 424,583 425,581 426,578 427,576 428,573 429,571 431,569 432,566 433,564 435,562 436,559 437,557 439,555 M 181,406 181,409 181,411 181,414 181,416 180,418 180,421 180,423 179,426 179,428 178,430 178,433 177,435 176,437 176,440 175,442 174,444 M 174,444 173,446 172,449 171,451 171,453 170,456 169,458 169,461 168,463 168,465 167,468 167,470 167,473 167,475 M 394,306 394,304 394,303 395,302 395,300 395,299 395,297 396,296 396,295 397,293 397,292 398,291 398,289 399,288 400,287 401,286 401,285 402,283 403,282 404,281 405,280 406,279 407,278 408,277 410,277 411,276 412,275 413,274 415,274 416,273 417,273 419,272 420,272 421,271 423,271 424,271 425,271 427,270 428,270 430,270 431,270 433,270 434,271 435,271 437,271 438,271 440,272 441,272 442,273 444,273 445,274 446,274 447,275 449,276 450,277 451,277 452,278 453,279 454,280 455,281 456,282 457,283 458,285 459,286 460,287 460,288 461,289 462,291 462,292 463,293 463,295 464,296 464,297 464,299 465,300 465,302 465,303 465,304 465,306"
         style="fill:none;stroke:#000000;stroke-width:26.859;stroke-linecap:round;stroke-linejoin:round;stroke-miterlimit:4;stroke-dasharray:none" />
    </g>
  </g>
</svg>
